<svg width="20" height="20" viewBox="0 0 20 20" fill="none" xmlns="http://www.w3.org/2000/svg">
<g clip-path="url(#clip0_75_869)">
<path d="M6.51646 18.3332H13.4837C15.4077 18.3332 16.9673 16.8448 16.9673 15.0088V10.944C16.9673 10.3538 17.213 9.78783 17.6503 9.3705C18.6636 8.40359 18.5319 6.80154 17.373 5.99727L12.0491 2.30233C10.8275 1.45456 9.17265 1.45456 7.95111 2.30233L2.62717 5.99727C1.46831 6.80154 1.33659 8.40359 2.34982 9.3705C2.78714 9.78783 3.03283 10.3538 3.03283 10.944V15.0088C3.03283 16.8448 4.5925 18.3332 6.51646 18.3332Z" stroke="#28303F" stroke-width="1.5"/>
<path d="M11.6667 13.3332C11.6667 14.2536 10.9206 14.9998 10.0001 14.9998C9.07961 14.9998 8.33342 14.2536 8.33342 13.3332C8.33342 12.4127 9.07961 11.6665 10.0001 11.6665C10.9206 11.6665 11.6667 12.4127 11.6667 13.3332Z" stroke="#28303F" stroke-width="1.5"/>
</g>
<defs>
<clipPath id="clip0_75_869">
<rect width="20" height="20" fill="white"/>
</clipPath>
</defs>
</svg>
