<svg width="20" height="20" viewBox="0 0 20 20" fill="none" xmlns="http://www.w3.org/2000/svg">
<path d="M3.32267 14.3588L4.01498 14.6473L3.32267 14.3588ZM2.62823 16.0255L3.32054 16.3139L2.62823 16.0255ZM17.3718 16.0255L16.6795 16.3139L17.3718 16.0255ZM16.6774 14.3588L17.3697 14.0704L16.6774 14.3588ZM13.3334 12.5832C12.9191 12.5832 12.5834 12.919 12.5834 13.3332C12.5834 13.7474 12.9191 14.0832 13.3334 14.0832V12.5832ZM6.66669 14.0832C7.0809 14.0832 7.41669 13.7474 7.41669 13.3332C7.41669 12.919 7.0809 12.5832 6.66669 12.5832V14.0832ZM15.8334 7.59243H15.0834C15.0834 8.98515 14.2868 10.6723 13.1574 12.0474C12.6019 12.7238 11.9932 13.2902 11.4145 13.6812C10.8197 14.0831 10.3311 14.2498 10 14.2498V14.9998V15.7498C10.7627 15.7498 11.5502 15.3998 12.2542 14.9241C12.9743 14.4376 13.6872 13.7658 14.3166 12.9994C15.557 11.4891 16.5834 9.47251 16.5834 7.59243H15.8334ZM10 14.9998V14.2498C9.66897 14.2498 9.18039 14.0831 8.58558 13.6812C8.00688 13.2902 7.39815 12.7238 6.84263 12.0474C5.71325 10.6723 4.91669 8.98515 4.91669 7.59243H4.16669H3.41669C3.41669 9.47251 4.44304 11.4891 5.68346 12.9994C6.31283 13.7658 7.02572 14.4376 7.74584 14.9241C8.44986 15.3998 9.23733 15.7498 10 15.7498V14.9998ZM4.16669 7.59243H4.91669C4.91669 4.72267 7.20367 2.4165 10 2.4165V1.6665V0.916504C6.35306 0.916504 3.41669 3.9166 3.41669 7.59243H4.16669ZM10 1.6665V2.4165C12.7964 2.4165 15.0834 4.72267 15.0834 7.59243H15.8334H16.5834C16.5834 3.9166 13.647 0.916504 10 0.916504V1.6665ZM12.0834 7.49984H11.3334C11.3334 8.23622 10.7364 8.83317 10 8.83317V9.58317V10.3332C11.5648 10.3332 12.8334 9.06464 12.8334 7.49984H12.0834ZM10 9.58317V8.83317C9.26364 8.83317 8.66669 8.23622 8.66669 7.49984H7.91669H7.16669C7.16669 9.06464 8.43522 10.3332 10 10.3332V9.58317ZM7.91669 7.49984H8.66669C8.66669 6.76346 9.26364 6.1665 10 6.1665V5.4165V4.6665C8.43522 4.6665 7.16669 5.93503 7.16669 7.49984H7.91669ZM10 5.4165V6.1665C10.7364 6.1665 11.3334 6.76346 11.3334 7.49984H12.0834H12.8334C12.8334 5.93503 11.5648 4.6665 10 4.6665V5.4165ZM3.32267 14.3588L2.63037 14.0704L1.93592 15.737L2.62823 16.0255L3.32054 16.3139L4.01498 14.6473L3.32267 14.3588ZM4.16669 18.3332V19.0832H15.8334V18.3332V17.5832H4.16669V18.3332ZM17.3718 16.0255L18.0641 15.737L17.3697 14.0704L16.6774 14.3588L15.9851 14.6473L16.6795 16.3139L17.3718 16.0255ZM15.1389 13.3332V12.5832H13.3334V13.3332V14.0832H15.1389V13.3332ZM4.86113 13.3332V14.0832H6.66669V13.3332V12.5832H4.86113V13.3332ZM16.6774 14.3588L17.3697 14.0704C16.9944 13.1698 16.1145 12.5832 15.1389 12.5832V13.3332V14.0832C15.509 14.0832 15.8427 14.3057 15.9851 14.6473L16.6774 14.3588ZM15.8334 18.3332V19.0832C17.5578 19.0832 18.7274 17.3288 18.0641 15.737L17.3718 16.0255L16.6795 16.3139C16.9311 16.9177 16.4875 17.5832 15.8334 17.5832V18.3332ZM2.62823 16.0255L1.93592 15.737C1.27266 17.3288 2.44221 19.0832 4.16669 19.0832V18.3332V17.5832C3.51258 17.5832 3.06895 16.9177 3.32054 16.3139L2.62823 16.0255ZM3.32267 14.3588L4.01498 14.6473C4.15731 14.3057 4.49108 14.0832 4.86113 14.0832V13.3332V12.5832C3.88552 12.5832 3.0056 13.1698 2.63037 14.0704L3.32267 14.3588Z" fill="#28303F"/>
</svg>
