<svg width="20" height="20" viewBox="0 0 20 20" fill="none" xmlns="http://www.w3.org/2000/svg">
<path d="M17.5 14.9999L10.6769 18.0324C10.246 18.2239 9.75404 18.2239 9.3231 18.0324L2.5 14.9999M17.5 10.8332L10.6769 13.8657C10.246 14.0572 9.75404 14.0572 9.3231 13.8657L2.5 10.8332M3.15738 6.57858L9.25464 9.62721C9.72386 9.86182 10.2761 9.86182 10.7454 9.62721L16.8426 6.57858C17.4568 6.27148 17.4568 5.39497 16.8426 5.08787L10.7454 2.03924C10.2761 1.80463 9.72386 1.80463 9.25464 2.03924L3.15738 5.08787C2.54317 5.39497 2.54317 6.27148 3.15738 6.57858Z" stroke="#28303F" stroke-width="1.5" stroke-linecap="round" stroke-linejoin="round"/>
</svg>
