<svg width="20" height="20" viewBox="0 0 20 20" fill="none" xmlns="http://www.w3.org/2000/svg">
<path d="M14.4772 6.81063C16.7489 7.83079 18.3334 10.1343 18.3334 12.8125V15.625C18.3334 16.6605 17.5043 17.5 16.4816 17.5H10.926C8.50708 17.5 6.44923 15.9347 5.68657 13.75M14.4772 6.81063C13.8926 4.33805 11.6954 2.5 9.07416 2.5H8.14823C4.56861 2.5 1.66675 5.43813 1.66675 9.0625V11.875C1.66675 12.9105 2.49585 13.75 3.5186 13.75H5.68657M14.4772 6.81063C14.5769 7.23229 14.6297 7.6724 14.6297 8.125C14.6297 11.2316 12.1424 13.75 9.07416 13.75H5.68657" stroke="#28303F" stroke-width="1.5" stroke-linejoin="round"/>
</svg>
