<svg width="16" height="20" viewBox="0 0 16 20" fill="none" xmlns="http://www.w3.org/2000/svg">
<path d="M7.22635 3.39157C4.88603 3.74489 3.01436 5.67778 2.73295 8.16202L2.44555 10.6991C2.37414 11.3295 2.11864 11.9227 1.71283 12.4004C0.851657 13.414 1.5506 15.0003 2.85836 15.0003H13.1415C14.4492 15.0003 15.1482 13.414 14.287 12.4004C13.8812 11.9227 13.6257 11.3295 13.5543 10.6991L13.3644 9.0226M10.4999 16.667C10.136 17.638 9.15411 18.3337 7.99992 18.3337C6.84573 18.3337 5.86382 17.638 5.49992 16.667M14.6666 4.16699C14.6666 5.5477 13.5473 6.66699 12.1666 6.66699C10.7859 6.66699 9.66659 5.5477 9.66659 4.16699C9.66659 2.78628 10.7859 1.66699 12.1666 1.66699C13.5473 1.66699 14.6666 2.78628 14.6666 4.16699Z" stroke="#28303F" stroke-width="1.5" stroke-linecap="round"/>
</svg>
